<?xml version="1.0" standalone="no"?>
<!DOCTYPE svg PUBLIC "-//W3C//DTD SVG 20010904//EN"
 "http://www.w3.org/TR/2001/REC-SVG-20010904/DTD/svg10.dtd">
<svg version="1.0" xmlns="http://www.w3.org/2000/svg"
 width="648.000000pt" height="1280.000000pt" viewBox="0 0 648.000000 1280.000000"
 preserveAspectRatio="xMidYMid meet">
<metadata>
Created by potrace 1.15, written by Peter Selinger 2001-2017
</metadata>
<g transform="translate(0.000000,1280.000000) scale(0.100000,-0.100000)"
fill="#000000" stroke="none">
<path d="M5859 12785 c-55 -18 -128 -80 -162 -138 -14 -23 -34 -71 -45 -107
-76 -248 -4 -422 228 -554 47 -27 87 -50 88 -52 6 -4 -962 -1174 -969 -1172
-16 7 -621 713 -637 744 -6 12 -11 64 -10 120 1 81 -2 107 -19 146 -55 122
-344 356 -576 467 -179 85 -319 124 -517 141 -191 16 -297 -4 -403 -77 -54
-38 -151 -157 -245 -303 -139 -215 -145 -220 -236 -220 -68 0 -130 -23 -155
-59 -10 -14 -26 -52 -35 -83 -39 -134 -116 -120 -409 76 -100 67 -220 140
-267 163 -174 85 -346 117 -620 116 -150 0 -173 -2 -255 -27 -113 -34 -180
-72 -261 -149 -236 -220 -369 -562 -351 -906 6 -119 37 -225 109 -363 62 -121
96 -138 383 -193 219 -42 263 -55 377 -106 48 -21 109 -44 135 -50 27 -5 173
-12 326 -13 153 -2 280 -6 283 -9 3 -3 -18 -54 -46 -114 -69 -144 -87 -198
-100 -297 -20 -150 18 -296 117 -453 31 -48 98 -157 150 -242 110 -183 152
-236 196 -250 52 -17 261 -41 355 -41 152 0 278 38 383 116 44 32 50 34 56 17
135 -364 199 -454 452 -633 74 -52 139 -98 145 -102 7 -5 -13 -55 -56 -140
-92 -183 -102 -215 -102 -328 -1 -84 3 -102 27 -155 15 -33 41 -77 58 -98 17
-20 37 -53 45 -73 19 -46 15 -68 -75 -346 -118 -366 -135 -452 -180 -933 -100
-1052 -118 -2141 -55 -3370 18 -344 15 -548 -10 -684 -25 -137 -44 -342 -56
-591 -30 -684 -32 -690 -164 -905 -40 -65 -90 -210 -104 -300 -17 -109 14
-184 93 -225 44 -22 61 -25 155 -24 91 0 118 5 199 32 210 72 390 219 471 387
16 33 42 107 56 164 59 231 148 388 353 625 217 251 323 422 352 568 24 118
-22 184 -177 258 -109 53 -138 79 -155 144 -17 61 -5 587 15 691 25 131 44
304 66 600 38 507 67 673 171 966 77 220 121 379 199 721 95 416 145 614 170
673 11 27 55 108 96 181 64 112 78 131 95 127 12 -3 22 -11 24 -17 8 -23 35
-347 45 -526 20 -366 44 -541 100 -727 29 -99 30 -109 30 -305 0 -229 4 -250
101 -567 96 -310 125 -508 100 -668 -10 -66 -9 -80 19 -195 36 -152 64 -317
87 -513 15 -127 18 -237 18 -725 l0 -575 -23 -47 c-31 -62 -221 -245 -337
-324 -153 -105 -294 -166 -515 -224 -165 -44 -310 -130 -322 -191 -13 -68 45
-140 189 -236 96 -63 218 -116 322 -138 117 -24 406 -17 961 25 434 34 467 45
539 189 65 129 82 192 88 326 5 105 3 131 -18 205 -36 135 -36 177 0 247 l31
59 55 684 c53 671 71 912 97 1315 16 253 16 1436 0 1836 -7 167 -20 343 -32
425 -42 293 -71 563 -72 654 -1 82 5 119 45 270 90 343 127 598 127 877 0 95
-6 219 -12 275 -17 140 -16 240 6 388 14 95 17 156 12 255 -15 337 -120 593
-377 915 -47 58 -105 141 -131 185 -25 44 -110 193 -188 330 -213 375 -277
467 -587 854 -68 84 -123 156 -123 160 0 21 328 406 655 771 455 506 593 671
630 752 59 128 73 313 31 396 -45 89 -148 173 -262 213 -77 27 -204 34 -265
14z"/>
</g>
</svg>
